HIERARCHY
ROOT pelvis
{
  OFFSET 0 100 0
  CHANNELS 6 Xposition Yposition Zposition Zrotation Xrotation Yrotation
  JOINT pelvis_right_femur
  {
    OFFSET -10.78128 -3.44521 -0.5502486
    CHANNELS 3 Zrotation Xrotation Yrotation
    JOINT right_femur_tibia
    {
      OFFSET -0.8047443 -44.0398 -0.1307829
      CHANNELS 3 Zrotation Xrotation Yrotation
      JOINT right_tibia_foot
      {
        OFFSET 3.006224 -47.83518 -5
        CHANNELS 3 Zrotation Xrotation Yrotation
        End Site
        {
          OFFSET 0 -5 15
        }
      }
    }
  }
  JOINT pelvis_left_femur
  {
    OFFSET 10.78128 -3.44521 -0.5502486
    CHANNELS 3 Zrotation Xrotation Yrotation
    JOINT left_femur_tibia
    {
      OFFSET 0.8047443 -44.0398 -0.1307829
      CHANNELS 3 Zrotation Xrotation Yrotation
      JOINT left_tibia_foot
      {
        OFFSET -4.370144 -48.10324 -4.275266
        CHANNELS 3 Zrotation Xrotation Yrotation
        End Site
        {
          OFFSET 0 -5 15
        }
      }
    }
  }
  JOINT pelvis_spine1
  {
    OFFSET 0 6.468898 -3.129235
    CHANNELS 3 Zrotation Xrotation Yrotation
    JOINT spine1
    {
      OFFSET 0 23.15396 4.99043
      CHANNELS 3 Zrotation Xrotation Yrotation
      JOINT spine2
      {
        OFFSET 0 20.79997 -5.064912
        CHANNELS 3 Zrotation Xrotation Yrotation
        JOINT neck
        {
          OFFSET 0 14.38658 9.616178
          CHANNELS 3 Zrotation Xrotation Yrotation
          End Site
          {
            OFFSET 0 20 0
          }
        }
      }
      JOINT right_manubrium
      {
        OFFSET -5.722621 16.35077 3.967754
        CHANNELS 3 Zrotation Xrotation Yrotation
        JOINT right_clavicle
        {
          OFFSET -13.16364 1.694482 -4.693211
          CHANNELS 3 Zrotation Xrotation Yrotation
          JOINT right_humerus
          {
            OFFSET -28.5034 -0.3100689 -2.792744
            CHANNELS 3 Zrotation Xrotation Yrotation
            JOINT right_radius
            {
              OFFSET -25.15693 0.02248979 -1.271978
              CHANNELS 3 Zrotation Xrotation Yrotation
              End Site
              {
                OFFSET -15 0 0
              }
            }
          }
        }
      }
      JOINT left_manubrium
      {
        OFFSET 5.722621 16.35077 3.967754
        CHANNELS 3 Zrotation Xrotation Yrotation
        JOINT left_clavicle
        {
          OFFSET 13.16364 1.694482 -4.693211
          CHANNELS 3 Zrotation Xrotation Yrotation
          JOINT left_humerus
          {
            OFFSET 29.39168 -1.063119 -2.237045
            CHANNELS 3 Zrotation Xrotation Yrotation
            JOINT left_radius
            {
              OFFSET 24.59957 -0.9528479 0.9047498
              CHANNELS 3 Zrotation Xrotation Yrotation
              End Site
              {
                OFFSET 15 -0 -0
              }
            }
          }
        }
      }
    }
  }
}
MOTION
Frames: 21
Frame Time: 0.0416666666667
0 103.5113 0 2.183961 -1.225316 0.2953278 1.245934 -10.0367 8.765973 -0 34.90532 -0 -5.277762 -18.00801 -2.469674 -8.034386 10.10995 -23.52621 -0 5.117862 -0 7.691935 -16.13649 26.59174 -4.327998 -5.056458 4.932332 1.993637 9.222147 -7.756669 0.8329203 22.83135 7.175585 3.245968 -23.10451 8.815671 6.372723 -19.77671 11.5718 86.31743 35.95008 -19.78161 -0 0 16.2703 -7.576611 8.242968 4.624803 5.468557 -19.48208 -1.694945 -94.78795 29.74885 22.97413 0 0 -15.95665 3.498187 17.90225 9.573083
0.3179665 103.4964 1.33357 2.025295 -1.149606 0.5129513 1.533309 -10.97352 8.705559 -0 35.16244 -0 -5.347364 -17.69556 -2.642617 -7.881134 10.27218 -23.43722 -0 5.133748 -0 7.573018 -16.38706 26.44701 -4.245364 -4.859078 4.839761 2.048562 9.203684 -7.803316 0.8442084 22.75075 7.197529 3.261038 -23.24595 8.850796 6.366236 -19.75435 11.56817 86.31066 35.93723 -19.81398 -0 0 16.18591 -7.613422 8.276108 4.655758 5.497691 -19.53763 -1.694961 -94.67722 29.70596 22.86897 0 0 -16.2167 3.56496 17.81088 9.552578
0.62598 103.4222 2.772483 1.789735 -0.9603241 0.6271285 1.928338 -12.46128 8.452355 -0 33.99413 -0 -5.429895 -17.0545 -2.495921 -7.671414 10.46236 -23.22617 -0 5.210181 -0 7.357646 -16.82154 26.18678 -4.165501 -4.551782 4.784608 2.215003 9.152791 -7.836379 0.8526403 22.56671 7.22989 3.297266 -23.45996 8.867149 6.36125 -19.67054 11.57813 86.30214 35.92431 -19.92137 -0 0 15.95453 -7.660129 8.333296 4.673572 5.642777 -19.6469 -1.692626 -94.43481 29.61686 22.4912 0 0 -16.86593 3.730823 17.68013 9.427884
0.9500075 103.239 4.398462 1.540757 -0.6108773 0.6029066 2.314137 -14.34534 7.956481 -0 30.80577 -0 -5.486254 -15.95027 -1.928597 -7.504802 10.67691 -22.86674 -0 5.402076 -0 7.04545 -17.47144 25.77462 -4.123416 -4.178568 4.830973 2.474057 9.046434 -7.798732 0.8999965 22.29488 7.255645 3.37581 -23.72205 8.878369 6.305583 -19.45256 11.60459 86.32827 35.91049 -20.16114 -0 0 15.53501 -7.715703 8.418423 4.670854 5.915653 -19.82916 -1.697378 -94.03785 29.48743 21.78799 0 0 -17.95127 3.990712 17.51436 9.170544
1.304288 102.8485 6.281136 1.377268 -0.1454456 0.5344999 2.506267 -16.36277 7.335805 -0 25.62405 -0 -5.479557 -14.40382 -0.9671524 -7.453639 10.92599 -22.36035 -0 5.806679 -0 6.621177 -18.25921 25.17699 -4.143617 -3.805022 4.982176 2.758787 8.926322 -7.664672 0.9832225 21.99882 7.259814 3.472982 -24.01248 8.889456 6.175189 -19.11444 11.6199 86.41737 35.88976 -20.50895 -0 0 14.96908 -7.787934 8.530974 4.662132 6.310716 -20.10914 -1.674263 -93.49795 29.33265 20.81535 0 0 -19.35459 4.291446 17.31441 8.819949
1.694064 102.2375 8.439035 1.339191 0.4179399 0.4763882 2.442731 -18.22058 6.622276 -0 18.95939 -0 -5.422082 -12.56553 0.2632172 -7.509103 11.2247 -21.71445 -0 6.462337 -0 6.052348 -19.08279 24.32883 -4.227445 -3.511781 5.14623 2.986092 8.793503 -7.513661 1.057492 21.76953 7.270038 3.568716 -24.27532 8.90177 5.979314 -18.79929 11.54175 86.56053 35.86861 -20.85671 -0 0 14.3299 -7.880464 8.670919 4.667616 6.767247 -20.44378 -1.593357 -92.85182 29.154 19.72025 0 0 -20.83449 4.581101 17.08192 8.462404
2.107705 101.4538 10.92458 1.394527 1.094598 0.4912474 2.266892 -19.69376 5.763101 -0 11.6766 -0 -5.338424 -10.7555 1.539625 -7.64807 11.58417 -20.89298 -0 7.406843 -0 5.284774 -19.83001 23.20956 -4.315194 -3.315622 5.237733 3.129053 8.635307 -7.43264 1.077934 21.62084 7.318212 3.647228 -24.47746 8.91048 5.728747 -18.48341 11.38961 86.81509 35.84658 -21.21368 -0 0 13.63774 -7.986486 8.844626 4.698706 7.197686 -20.80277 -1.54 -92.15095 28.95593 18.59247 0 0 -22.17984 4.832265 16.82543 8.187145
2.524668 100.5614 13.84984 1.429068 1.796069 0.6805747 2.161398 -20.52105 4.906453 -0 5.040155 -0 -5.315573 -9.291795 2.708435 -7.764204 11.98458 -19.92589 -0 8.874351 -0 4.23558 -20.30713 21.81847 -4.287685 -3.205583 5.203736 3.213734 8.478188 -7.480364 1.047572 21.51178 7.396097 3.702102 -24.62518 8.908453 5.480769 -18.07322 11.21616 87.24254 35.81851 -21.66214 -0 0 12.87353 -8.095605 9.063497 4.75513 7.447135 -21.118 -1.600981 -91.48963 28.7465 17.59763 0 0 -23.12118 5.001169 16.54005 8.066865
2.925859 99.71637 17.33032 1.363172 2.448702 1.127882 2.211908 -20.39775 4.201497 -0 0.2482231 -0 -5.463193 -8.343857 3.596193 -7.71779 12.3778 -18.83247 -0 11.15909 -0 2.801287 -20.19486 20.12793 -4.048087 -3.232731 5.042035 3.248782 8.304035 -7.659506 0.9792103 21.4338 7.470378 3.731024 -24.72708 8.863743 5.293244 -17.60722 11.04447 87.77982 35.78787 -22.16591 -0 0 12.06927 -8.234921 9.328745 4.852779 7.391769 -21.29128 -1.75177 -90.99164 28.5164 16.94259 0 0 -23.44794 5.057604 16.21493 8.139881
3.300223 99.10715 21.40521 1.130282 3.075075 1.813151 2.407956 -19.10301 3.70651 0 -2.089563 0 -5.849844 -7.854439 4.068629 -7.404014 12.60489 -17.65522 -0 14.52388 -0 0.9461878 -19.10202 18.17508 -3.522767 -3.43076 4.768806 3.24183 8.095809 -7.934739 0.8569041 21.37077 7.522957 3.711099 -24.76928 8.743885 5.178455 -17.11568 10.89654 88.36964 35.76169 -22.67369 -0 0 11.24822 -8.427299 9.639451 4.998968 7.02519 -21.2704 -1.9632 -90.73673 28.26283 16.73231 0 0 -23.09915 4.996856 15.84971 8.413147
3.657353 98.85268 26.05195 0.7123687 3.554689 2.554559 2.754379 -16.69199 3.467527 0 -2.364585 0 -6.435009 -7.782404 4.182032 -6.893595 12.38443 -16.48366 -0 19.27776 -0 -1.211015 -16.70606 16.1173 -2.694205 -3.747806 4.473327 3.201672 7.914455 -8.207757 0.663881 21.32478 7.552306 3.618648 -24.69039 8.540749 5.090836 -16.60096 10.80956 88.95887 35.74442 -23.12364 -0 0 10.46613 -8.692296 9.992363 5.202422 6.43296 -21.03083 -2.22195 -90.75923 27.98723 16.97778 0 0 -22.16325 4.826465 15.44897 8.855887
4.009428 99.01858 31.17832 0.2390404 3.625195 3.061605 3.220237 -13.3594 3.45862 0 -1.697132 0 -7.070457 -8.287877 4.138254 -6.452573 11.38938 -15.34859 -0 25.81815 -0 -3.387066 -12.93498 14.20939 -1.694476 -4.048481 4.368381 3.108092 7.868689 -8.284356 0.4152043 21.35345 7.545694 3.462095 -24.43201 8.251781 5.018528 -16.1313 10.86633 89.43982 35.7501 -23.35678 -0 0 9.826813 -9.064584 10.37826 5.486487 5.718943 -20.59887 -2.484479 -91.03395 27.68146 17.60721 0 0 -20.86329 4.566447 15.02073 9.388047
4.355593 99.60406 36.57548 -0.05147836 3.146218 3.117677 3.593228 -9.09731 3.529122 0 -1.108594 0 -7.606477 -9.506248 4.132431 -6.247376 9.231675 -14.21906 -0 34.2211 -0 -5.193755 -8.292736 12.75902 -0.811759 -4.165685 4.669152 2.940168 8.03528 -8.010617 0.1575476 21.5119 7.470466 3.276404 -23.99801 7.869815 5.037253 -15.76731 11.1394 89.72645 35.79793 -23.23708 -0 0 9.380177 -9.569232 10.79095 5.860506 4.965043 -20.10925 -2.712507 -91.43904 27.34112 18.45281 0 0 -19.46743 4.253252 14.57887 9.905047
4.718308 100.5129 42.02483 0.0871428 2.09952 2.773409 3.554817 -3.775372 3.504924 0 -1.167931 0 -7.935782 -11.30365 4.262982 -6.143253 5.46052 -13.05643 -0 43.72642 -0 -6.327705 -3.895924 12.00422 -0.3638966 -4.00549 5.441011 2.687757 8.408046 -7.418026 -0.04478624 21.83896 7.287877 3.106964 -23.40438 7.394384 5.17924 -15.57891 11.57541 89.69364 35.90042 -22.67457 -0 0 9.175723 -10.24778 11.21645 6.334339 4.240145 -19.7022 -2.877116 -91.83521 26.96178 19.34748 0 0 -18.20872 3.939023 14.13992 10.3123
5.116995 101.6206 47.36601 0.7183948 0.6109816 2.314613 2.952057 2.435629 3.364349 0 -2.091575 0 -7.974814 -13.31277 4.564529 -5.999033 0.002345834 -11.89405 -0 52.84782 -0 -6.773538 -0.7191634 11.93668 -0.4930128 -3.61457 6.571157 2.356894 8.889448 -6.652312 -0.1341843 22.34646 6.973876 2.992412 -22.65002 6.842619 5.371673 -15.70142 12.04163 89.16202 36.05874 -21.54491 -0 0 9.323771 -11.17048 11.62356 6.935463 3.63848 -19.41725 -2.94163 -92.13949 26.53612 20.19575 0 0 -17.25481 3.670632 13.72212 10.55692
5.5234 102.8007 52.44699 1.674641 -0.943761 1.975874 1.903195 8.971299 3.206226 0 -3.851636 0 -7.678997 -15.1892 5.031849 -5.879311 -6.553295 -10.89158 -0 59.70771 -0 -6.701959 0.9194969 12.33558 -1.097561 -3.152024 7.858987 1.982612 9.32229 -5.835014 -0.1044513 22.97144 6.549338 2.934396 -21.76413 6.254087 5.492851 -16.17977 12.43597 88.0885 36.23608 -19.80558 -0 0 9.916715 -12.39166 11.981 7.689634 3.307507 -19.24037 -2.877462 -92.31647 26.07223 20.94611 0 0 -16.6645 3.462488 13.33146 10.66058
5.958288 103.9052 57.25538 2.810691 -2.289417 1.80623 0.564954 15.34564 3.113999 0 -6.14028 0 -7.074756 -16.78605 5.612417 -5.631132 -13.64732 -10.03763 -0 62.79484 -0 -6.224096 1.127663 13.14795 -1.981454 -2.738277 9.08529 1.534662 9.641974 -5.036444 -0.01421027 23.61041 6.090877 2.897277 -20.82023 5.690281 5.416625 -16.96512 12.69533 86.54813 36.36179 -17.52249 -0 0 11.00081 -13.93222 12.26161 8.616656 3.2947 -19.08786 -2.684948 -92.41083 25.59115 21.65897 0 0 -16.32933 3.278729 12.95521 10.68973
6.435955 104.724 61.94943 3.859535 -3.283467 1.716418 -0.763842 21.23223 3.121474 0 -8.512635 0 -6.243608 -18.15621 6.229276 -5.126278 -20.59884 -9.100888 -0 61.70608 -0 -5.549019 0.6729892 14.39843 -2.879087 -2.502303 10.06365 1.035187 9.833044 -4.329289 0.07495392 24.13518 5.682105 2.847482 -19.91746 5.212769 5.113886 -17.96118 12.78448 84.67864 36.36077 -14.84443 -0 0 12.57164 -15.75116 12.45112 9.705641 3.512352 -18.84374 -2.406282 -92.49631 25.10927 22.43084 0 0 -16.0603 3.071601 12.57908 10.711
6.990207 104.9681 66.62046 4.492458 -3.830554 1.640346 -1.698834 26.33521 3.156284 0 -10.52856 0 -5.293517 -19.45954 6.798204 -4.089068 -26.70272 -7.772729 -0 56.21516 -0 -4.975648 0.2663699 16.16975 -3.475143 -2.497942 10.70025 0.5560582 9.861808 -3.741476 0.1216543 24.42919 5.379734 2.764091 -19.10855 4.855299 4.617728 -19.07511 12.76251 82.62236 36.18964 -11.92211 -0 0 14.55321 -17.75377 12.54003 10.91795 3.847483 -18.50576 -2.122822 -92.60737 24.65309 23.2256 0 0 -15.73157 2.809057 12.20244 10.78955
7.643154 104.5426 71.27645 4.584145 -3.971963 1.542845 -2.034632 30.52309 3.078729 0 -11.86511 0 -4.311479 -20.79359 7.266697 -2.47794 -31.54062 -5.847462 -0 47.29152 -0 -4.565093 0.2136817 18.32113 -3.649531 -2.64287 10.99787 0.1582811 9.795398 -3.305802 0.1174754 24.44007 5.205385 2.647867 -18.44451 4.632986 4.051797 -20.19276 12.68178 80.5974 35.83036 -9.002445 -0 0 16.73027 -19.78067 12.52024 12.15028 4.152603 -18.098 -1.914133 -92.75113 24.24695 24.01653 0 0 -15.20152 2.476657 11.82439 10.98052
8.410949 103.5646 75.99595 4.283009 -3.826269 1.438397 -1.939076 33.8523 2.924925 0 -12.27269 0 -3.328131 -22.07961 7.626245 -0.6682979 -34.91399 -3.684544 -0 36.88586 -0 -4.194199 0.3108937 20.28032 -3.524542 -2.889391 11.03969 -0.1403225 9.700616 -3.055556 0.1014633 24.21434 5.138188 2.531085 -17.96736 4.544031 3.543328 -21.22541 12.54591 78.79251 35.31005 -6.341223 -0 0 18.8677 -21.71277 12.41283 13.30217 4.313066 -17.67108 -1.812129 -92.90203 23.90186 24.77182 0 0 -14.39037 2.088366 11.44651 11.29653
